<svg xmlns="http://www.w3.org/2000/svg" xmlns:xlink="http://www.w3.org/1999/xlink" width="500" zoomAndPan="magnify" viewBox="0 0 375 374.999991" height="500" preserveAspectRatio="xMidYMid meet" version="1.0"><defs><g/><clipPath id="30842f89c1"><path d="M 19.335938 146 L 61 146 L 61 148 L 19.335938 148 Z M 19.335938 146 " clip-rule="nonzero"/></clipPath><clipPath id="76d52f58fb"><path d="M 74 159 L 102.585938 159 L 102.585938 162 L 74 162 Z M 74 159 " clip-rule="nonzero"/></clipPath><clipPath id="b334c46e0e"><path d="M 79 164 L 102.585938 164 L 102.585938 167 L 79 167 Z M 79 164 " clip-rule="nonzero"/></clipPath><clipPath id="10da1218f8"><path d="M 70 155 L 102.585938 155 L 102.585938 158 L 70 158 Z M 70 155 " clip-rule="nonzero"/></clipPath><clipPath id="ef2f57c0ac"><path d="M 65 150 L 102.585938 150 L 102.585938 153 L 65 153 Z M 65 150 " clip-rule="nonzero"/></clipPath><clipPath id="c1f2f0a69b"><path d="M 60 146 L 102.585938 146 L 102.585938 148 L 60 148 Z M 60 146 " clip-rule="nonzero"/></clipPath><clipPath id="f8d933ee3e"><path d="M 81 146 L 102.585938 146 L 102.585938 188 L 81 188 Z M 81 146 " clip-rule="nonzero"/></clipPath><clipPath id="d16401cee6"><path d="M 74 201 L 102.585938 201 L 102.585938 204 L 74 204 Z M 74 201 " clip-rule="nonzero"/></clipPath><clipPath id="12dd5d93d0"><path d="M 79 206 L 102.585938 206 L 102.585938 208 L 79 208 Z M 79 206 " clip-rule="nonzero"/></clipPath><clipPath id="2e8cc0d5ef"><path d="M 70 196 L 102.585938 196 L 102.585938 199 L 70 199 Z M 70 196 " clip-rule="nonzero"/></clipPath><clipPath id="8ec741e875"><path d="M 65 192 L 102.585938 192 L 102.585938 194 L 65 194 Z M 65 192 " clip-rule="nonzero"/></clipPath><clipPath id="37e4d45f92"><path d="M 60 187 L 102.585938 187 L 102.585938 190 L 60 190 Z M 60 187 " clip-rule="nonzero"/></clipPath><clipPath id="ad7ba1fb03"><path d="M 81 187 L 102.585938 187 L 102.585938 229 L 81 229 Z M 81 187 " clip-rule="nonzero"/></clipPath><clipPath id="9bba6e9ba8"><path d="M 19.335938 186 L 61 186 L 61 189 L 19.335938 189 Z M 19.335938 186 " clip-rule="nonzero"/></clipPath></defs><path fill="#faefe0" d="M 60.832031 159.945312 L 60.832031 161.734375 L 45.109375 161.722656 L 35.050781 161.714844 L 33.265625 159.925781 L 46.898438 159.933594 Z M 60.832031 159.945312 " fill-opacity="1" fill-rule="nonzero"/><path fill="#faefe0" d="M 60.832031 164.597656 L 60.832031 166.386719 L 40.457031 166.375 L 39.710938 166.375 L 37.917969 164.582031 L 42.246094 164.585938 Z M 60.832031 164.597656 " fill-opacity="1" fill-rule="nonzero"/><path fill="#faefe0" d="M 60.832031 155.289062 L 60.832031 157.078125 L 49.761719 157.070312 L 30.394531 157.058594 L 28.605469 155.269531 L 51.546875 155.285156 Z M 60.832031 155.289062 " fill-opacity="1" fill-rule="nonzero"/><path fill="#faefe0" d="M 60.832031 150.636719 L 60.832031 152.425781 L 54.410156 152.417969 L 25.738281 152.402344 L 23.949219 150.613281 L 56.195312 150.632812 Z M 60.832031 150.636719 " fill-opacity="1" fill-rule="nonzero"/><g clip-path="url(#30842f89c1)"><path fill="#faefe0" d="M 60.832031 146 L 60.832031 147.769531 L 59.0625 147.765625 L 21.082031 147.742188 L 19.335938 146 Z M 60.832031 146 " fill-opacity="1" fill-rule="nonzero"/></g><path fill="#faefe0" d="M 60.832031 146 L 60.832031 187.496094 L 40.085938 166.746094 L 51.546875 155.285156 L 54.410156 152.417969 L 59.0625 147.765625 Z M 60.832031 146 " fill-opacity="1" fill-rule="nonzero"/><g clip-path="url(#76d52f58fb)"><path fill="#faefe0" d="M 102.328125 159.945312 L 102.328125 161.734375 L 86.605469 161.722656 L 76.546875 161.714844 L 74.761719 159.925781 L 88.394531 159.933594 Z M 102.328125 159.945312 " fill-opacity="1" fill-rule="nonzero"/></g><g clip-path="url(#b334c46e0e)"><path fill="#faefe0" d="M 102.328125 164.597656 L 102.328125 166.386719 L 81.953125 166.375 L 81.207031 166.375 L 79.414062 164.582031 L 83.742188 164.585938 Z M 102.328125 164.597656 " fill-opacity="1" fill-rule="nonzero"/></g><g clip-path="url(#10da1218f8)"><path fill="#faefe0" d="M 102.328125 155.289062 L 102.328125 157.078125 L 91.257812 157.070312 L 71.890625 157.058594 L 70.101562 155.269531 L 93.042969 155.285156 Z M 102.328125 155.289062 " fill-opacity="1" fill-rule="nonzero"/></g><g clip-path="url(#ef2f57c0ac)"><path fill="#faefe0" d="M 102.328125 150.636719 L 102.328125 152.425781 L 95.90625 152.417969 L 67.234375 152.402344 L 65.445312 150.613281 L 97.691406 150.632812 Z M 102.328125 150.636719 " fill-opacity="1" fill-rule="nonzero"/></g><g clip-path="url(#c1f2f0a69b)"><path fill="#faefe0" d="M 102.328125 146 L 102.328125 147.769531 L 100.558594 147.765625 L 62.578125 147.742188 L 60.832031 146 Z M 102.328125 146 " fill-opacity="1" fill-rule="nonzero"/></g><g clip-path="url(#f8d933ee3e)"><path fill="#faefe0" d="M 102.328125 146 L 102.328125 187.496094 L 81.582031 166.746094 L 93.042969 155.285156 L 95.90625 152.417969 L 100.558594 147.765625 Z M 102.328125 146 " fill-opacity="1" fill-rule="nonzero"/></g><g clip-path="url(#d16401cee6)"><path fill="#faefe0" d="M 102.328125 201.441406 L 102.328125 203.230469 L 86.605469 203.21875 L 76.546875 203.210938 L 74.761719 201.421875 L 88.394531 201.429688 Z M 102.328125 201.441406 " fill-opacity="1" fill-rule="nonzero"/></g><g clip-path="url(#12dd5d93d0)"><path fill="#faefe0" d="M 102.328125 206.09375 L 102.328125 207.882812 L 81.953125 207.871094 L 81.207031 207.871094 L 79.414062 206.078125 L 83.742188 206.082031 Z M 102.328125 206.09375 " fill-opacity="1" fill-rule="nonzero"/></g><g clip-path="url(#2e8cc0d5ef)"><path fill="#faefe0" d="M 102.328125 196.785156 L 102.328125 198.574219 L 91.257812 198.566406 L 71.890625 198.554688 L 70.101562 196.765625 L 93.042969 196.78125 Z M 102.328125 196.785156 " fill-opacity="1" fill-rule="nonzero"/></g><g clip-path="url(#8ec741e875)"><path fill="#faefe0" d="M 102.328125 192.132812 L 102.328125 193.921875 L 95.90625 193.914062 L 67.234375 193.898438 L 65.445312 192.109375 L 97.691406 192.128906 Z M 102.328125 192.132812 " fill-opacity="1" fill-rule="nonzero"/></g><g clip-path="url(#37e4d45f92)"><path fill="#faefe0" d="M 102.328125 187.496094 L 102.328125 189.265625 L 100.558594 189.261719 L 62.578125 189.238281 L 60.832031 187.496094 Z M 102.328125 187.496094 " fill-opacity="1" fill-rule="nonzero"/></g><g clip-path="url(#ad7ba1fb03)"><path fill="#faefe0" d="M 102.328125 187.496094 L 102.328125 228.992188 L 81.582031 208.242188 L 93.042969 196.78125 L 95.90625 193.914062 L 100.558594 189.261719 Z M 102.328125 187.496094 " fill-opacity="1" fill-rule="nonzero"/></g><path fill="#faefe0" d="M 60.832031 200.179688 L 60.832031 201.96875 L 45.109375 201.957031 L 35.050781 201.949219 L 33.265625 200.160156 L 46.898438 200.167969 Z M 60.832031 200.179688 " fill-opacity="1" fill-rule="nonzero"/><path fill="#faefe0" d="M 60.832031 204.832031 L 60.832031 206.621094 L 40.457031 206.609375 L 39.710938 206.605469 L 37.917969 204.816406 L 42.246094 204.820312 Z M 60.832031 204.832031 " fill-opacity="1" fill-rule="nonzero"/><path fill="#faefe0" d="M 60.832031 195.523438 L 60.832031 197.3125 L 49.761719 197.304688 L 30.394531 197.292969 L 28.605469 195.503906 L 51.546875 195.519531 Z M 60.832031 195.523438 " fill-opacity="1" fill-rule="nonzero"/><path fill="#faefe0" d="M 60.832031 190.871094 L 60.832031 192.660156 L 54.410156 192.652344 L 25.738281 192.636719 L 23.949219 190.84375 L 56.195312 190.867188 Z M 60.832031 190.871094 " fill-opacity="1" fill-rule="nonzero"/><g clip-path="url(#9bba6e9ba8)"><path fill="#faefe0" d="M 60.832031 186.234375 L 60.832031 188.003906 L 59.0625 188.003906 L 21.082031 187.976562 L 19.335938 186.234375 Z M 60.832031 186.234375 " fill-opacity="1" fill-rule="nonzero"/></g><path fill="#faefe0" d="M 60.832031 186.234375 L 60.832031 227.730469 L 40.085938 206.980469 L 51.546875 195.519531 L 54.410156 192.652344 L 56.195312 190.867188 L 59.0625 188.003906 Z M 60.832031 186.234375 " fill-opacity="1" fill-rule="nonzero"/><g fill="#faefe0" fill-opacity="1"><g transform="translate(117.218867, 181.921037)"><g><path d="M 2.953125 0 L 2.953125 -33.15625 L 13.15625 -33.15625 C 16.070312 -33.15625 18.679688 -32.5 20.984375 -31.1875 C 23.285156 -29.875 25.082031 -28.003906 26.375 -25.578125 C 27.664062 -23.160156 28.3125 -20.410156 28.3125 -17.328125 L 28.3125 -15.8125 C 28.3125 -12.726562 27.675781 -9.984375 26.40625 -7.578125 C 25.132812 -5.179688 23.34375 -3.320312 21.03125 -2 C 18.726562 -0.675781 16.128906 -0.0078125 13.234375 0 Z M 9.796875 -27.625 L 9.796875 -5.484375 L 13.09375 -5.484375 C 15.769531 -5.484375 17.8125 -6.351562 19.21875 -8.09375 C 20.632812 -9.84375 21.359375 -12.34375 21.390625 -15.59375 L 21.390625 -17.359375 C 21.390625 -20.722656 20.6875 -23.273438 19.28125 -25.015625 C 17.882812 -26.753906 15.84375 -27.625 13.15625 -27.625 Z M 9.796875 -27.625 "/></g></g></g><g fill="#faefe0" fill-opacity="1"><g transform="translate(144.02974, 181.921037)"><g><path d="M 13.875 0.453125 C 10.257812 0.453125 7.316406 -0.648438 5.046875 -2.859375 C 2.773438 -5.078125 1.640625 -8.035156 1.640625 -11.734375 L 1.640625 -12.359375 C 1.640625 -14.835938 2.117188 -17.050781 3.078125 -19 C 4.035156 -20.957031 5.390625 -22.460938 7.140625 -23.515625 C 8.890625 -24.566406 10.890625 -25.09375 13.140625 -25.09375 C 16.515625 -25.09375 19.164062 -24.03125 21.09375 -21.90625 C 23.03125 -19.78125 24 -16.765625 24 -12.859375 L 24 -10.1875 L 8.3125 -10.1875 C 8.519531 -8.570312 9.160156 -7.273438 10.234375 -6.296875 C 11.304688 -5.328125 12.660156 -4.84375 14.296875 -4.84375 C 16.835938 -4.84375 18.820312 -5.765625 20.25 -7.609375 L 23.484375 -3.984375 C 22.492188 -2.585938 21.15625 -1.5 19.46875 -0.71875 C 17.78125 0.0625 15.914062 0.453125 13.875 0.453125 Z M 13.125 -19.765625 C 11.8125 -19.765625 10.75 -19.320312 9.9375 -18.4375 C 9.125 -17.5625 8.601562 -16.304688 8.375 -14.671875 L 17.53125 -14.671875 L 17.53125 -15.1875 C 17.5 -16.644531 17.101562 -17.769531 16.34375 -18.5625 C 15.59375 -19.363281 14.519531 -19.765625 13.125 -19.765625 Z M 13.125 -19.765625 "/></g></g></g><g fill="#faefe0" fill-opacity="1"><g transform="translate(165.73975, 181.921037)"><g><path d="M 9.46875 0 L 2.875 0 L 2.875 -34.984375 L 9.46875 -34.984375 Z M 9.46875 0 "/></g></g></g><g fill="#faefe0" fill-opacity="1"><g transform="translate(174.606512, 181.921037)"><g><path d="M 10.40625 -30.703125 L 10.40625 -24.640625 L 14.625 -24.640625 L 14.625 -19.8125 L 10.40625 -19.8125 L 10.40625 -7.515625 C 10.40625 -6.609375 10.578125 -5.957031 10.921875 -5.5625 C 11.273438 -5.164062 11.945312 -4.96875 12.9375 -4.96875 C 13.664062 -4.96875 14.3125 -5.019531 14.875 -5.125 L 14.875 -0.140625 C 13.582031 0.253906 12.253906 0.453125 10.890625 0.453125 C 6.273438 0.453125 3.921875 -1.875 3.828125 -6.53125 L 3.828125 -19.8125 L 0.234375 -19.8125 L 0.234375 -24.640625 L 3.828125 -24.640625 L 3.828125 -30.703125 Z M 10.40625 -30.703125 "/></g></g></g><g fill="#faefe0" fill-opacity="1"><g transform="translate(186.866263, 181.921037)"><g><path d="M 16.8125 0 C 16.5 -0.59375 16.273438 -1.328125 16.140625 -2.203125 C 14.546875 -0.429688 12.472656 0.453125 9.921875 0.453125 C 7.515625 0.453125 5.515625 -0.242188 3.921875 -1.640625 C 2.335938 -3.035156 1.546875 -4.796875 1.546875 -6.921875 C 1.546875 -9.535156 2.515625 -11.539062 4.453125 -12.9375 C 6.390625 -14.332031 9.1875 -15.035156 12.84375 -15.046875 L 15.875 -15.046875 L 15.875 -16.46875 C 15.875 -17.601562 15.582031 -18.507812 15 -19.1875 C 14.414062 -19.875 13.492188 -20.21875 12.234375 -20.21875 C 11.117188 -20.21875 10.242188 -19.953125 9.609375 -19.421875 C 8.984375 -18.890625 8.671875 -18.160156 8.671875 -17.234375 L 2.09375 -17.234375 C 2.09375 -18.660156 2.53125 -19.984375 3.40625 -21.203125 C 4.289062 -22.421875 5.535156 -23.375 7.140625 -24.0625 C 8.753906 -24.75 10.566406 -25.09375 12.578125 -25.09375 C 15.609375 -25.09375 18.015625 -24.328125 19.796875 -22.796875 C 21.585938 -21.273438 22.484375 -19.132812 22.484375 -16.375 L 22.484375 -5.6875 C 22.492188 -3.351562 22.816406 -1.585938 23.453125 -0.390625 L 23.453125 0 Z M 11.359375 -4.578125 C 12.335938 -4.578125 13.234375 -4.789062 14.046875 -5.21875 C 14.867188 -5.65625 15.476562 -6.238281 15.875 -6.96875 L 15.875 -11.203125 L 13.40625 -11.203125 C 10.113281 -11.203125 8.363281 -10.0625 8.15625 -7.78125 L 8.125 -7.40625 C 8.125 -6.582031 8.410156 -5.90625 8.984375 -5.375 C 9.566406 -4.84375 10.359375 -4.578125 11.359375 -4.578125 Z M 11.359375 -4.578125 "/></g></g></g><g fill="#faefe0" fill-opacity="1"><g transform="translate(208.371329, 181.921037)"><g/></g></g><g fill="#faefe0" fill-opacity="1"><g transform="translate(216.486628, 181.921037)"><g><path d="M 20.15625 -8.703125 C 20.15625 -9.992188 19.695312 -10.984375 18.78125 -11.671875 C 17.875 -12.359375 16.234375 -13.085938 13.859375 -13.859375 C 11.492188 -14.628906 9.625 -15.382812 8.25 -16.125 C 4.476562 -18.15625 2.59375 -20.894531 2.59375 -24.34375 C 2.59375 -26.132812 3.097656 -27.734375 4.109375 -29.140625 C 5.117188 -30.546875 6.566406 -31.640625 8.453125 -32.421875 C 10.347656 -33.210938 12.472656 -33.609375 14.828125 -33.609375 C 17.191406 -33.609375 19.300781 -33.179688 21.15625 -32.328125 C 23.007812 -31.472656 24.445312 -30.257812 25.46875 -28.6875 C 26.5 -27.125 27.015625 -25.347656 27.015625 -23.359375 L 20.171875 -23.359375 C 20.171875 -24.878906 19.691406 -26.0625 18.734375 -26.90625 C 17.785156 -27.75 16.445312 -28.171875 14.71875 -28.171875 C 13.039062 -28.171875 11.738281 -27.816406 10.8125 -27.109375 C 9.882812 -26.398438 9.421875 -25.472656 9.421875 -24.328125 C 9.421875 -23.242188 9.960938 -22.335938 11.046875 -21.609375 C 12.140625 -20.878906 13.738281 -20.195312 15.84375 -19.5625 C 19.738281 -18.394531 22.570312 -16.941406 24.34375 -15.203125 C 26.125 -13.472656 27.015625 -11.320312 27.015625 -8.75 C 27.015625 -5.875 25.925781 -3.617188 23.75 -1.984375 C 21.582031 -0.359375 18.660156 0.453125 14.984375 0.453125 C 12.429688 0.453125 10.109375 -0.0078125 8.015625 -0.9375 C 5.921875 -1.875 4.320312 -3.15625 3.21875 -4.78125 C 2.125 -6.40625 1.578125 -8.289062 1.578125 -10.4375 L 8.421875 -10.4375 C 8.421875 -6.769531 10.609375 -4.9375 14.984375 -4.9375 C 16.609375 -4.9375 17.875 -5.265625 18.78125 -5.921875 C 19.695312 -6.585938 20.15625 -7.515625 20.15625 -8.703125 Z M 20.15625 -8.703125 "/></g></g></g><g fill="#faefe0" fill-opacity="1"><g transform="translate(241.657933, 181.921037)"><g><path d="M 10.40625 -30.703125 L 10.40625 -24.640625 L 14.625 -24.640625 L 14.625 -19.8125 L 10.40625 -19.8125 L 10.40625 -7.515625 C 10.40625 -6.609375 10.578125 -5.957031 10.921875 -5.5625 C 11.273438 -5.164062 11.945312 -4.96875 12.9375 -4.96875 C 13.664062 -4.96875 14.3125 -5.019531 14.875 -5.125 L 14.875 -0.140625 C 13.582031 0.253906 12.253906 0.453125 10.890625 0.453125 C 6.273438 0.453125 3.921875 -1.875 3.828125 -6.53125 L 3.828125 -19.8125 L 0.234375 -19.8125 L 0.234375 -24.640625 L 3.828125 -24.640625 L 3.828125 -30.703125 Z M 10.40625 -30.703125 "/></g></g></g><g fill="#faefe0" fill-opacity="1"><g transform="translate(253.917684, 181.921037)"><g><path d="M 1.5 -12.546875 C 1.5 -14.992188 1.96875 -17.171875 2.90625 -19.078125 C 3.851562 -20.992188 5.210938 -22.472656 6.984375 -23.515625 C 8.753906 -24.566406 10.804688 -25.09375 13.140625 -25.09375 C 16.460938 -25.09375 19.175781 -24.078125 21.28125 -22.046875 C 23.382812 -20.015625 24.554688 -17.25 24.796875 -13.75 L 24.84375 -12.0625 C 24.84375 -8.289062 23.785156 -5.257812 21.671875 -2.96875 C 19.566406 -0.6875 16.738281 0.453125 13.1875 0.453125 C 9.632812 0.453125 6.796875 -0.679688 4.671875 -2.953125 C 2.554688 -5.234375 1.5 -8.332031 1.5 -12.25 Z M 8.078125 -12.0625 C 8.078125 -9.726562 8.515625 -7.941406 9.390625 -6.703125 C 10.273438 -5.460938 11.539062 -4.84375 13.1875 -4.84375 C 14.78125 -4.84375 16.023438 -5.453125 16.921875 -6.671875 C 17.816406 -7.898438 18.265625 -9.859375 18.265625 -12.546875 C 18.265625 -14.835938 17.816406 -16.613281 16.921875 -17.875 C 16.023438 -19.132812 14.765625 -19.765625 13.140625 -19.765625 C 11.523438 -19.765625 10.273438 -19.140625 9.390625 -17.890625 C 8.515625 -16.640625 8.078125 -14.695312 8.078125 -12.0625 Z M 8.078125 -12.0625 "/></g></g></g><g fill="#faefe0" fill-opacity="1"><g transform="translate(276.789052, 181.921037)"><g><path d="M 16.375 -18.46875 C 15.476562 -18.59375 14.6875 -18.65625 14 -18.65625 C 11.507812 -18.65625 9.878906 -17.8125 9.109375 -16.125 L 9.109375 0 L 2.53125 0 L 2.53125 -24.640625 L 8.75 -24.640625 L 8.921875 -21.703125 C 10.242188 -23.960938 12.078125 -25.09375 14.421875 -25.09375 C 15.148438 -25.09375 15.832031 -24.992188 16.46875 -24.796875 Z M 16.375 -18.46875 "/></g></g></g><g fill="#faefe0" fill-opacity="1"><g transform="translate(290.301247, 181.921037)"><g><path d="M 16.8125 0 C 16.5 -0.59375 16.273438 -1.328125 16.140625 -2.203125 C 14.546875 -0.429688 12.472656 0.453125 9.921875 0.453125 C 7.515625 0.453125 5.515625 -0.242188 3.921875 -1.640625 C 2.335938 -3.035156 1.546875 -4.796875 1.546875 -6.921875 C 1.546875 -9.535156 2.515625 -11.539062 4.453125 -12.9375 C 6.390625 -14.332031 9.1875 -15.035156 12.84375 -15.046875 L 15.875 -15.046875 L 15.875 -16.46875 C 15.875 -17.601562 15.582031 -18.507812 15 -19.1875 C 14.414062 -19.875 13.492188 -20.21875 12.234375 -20.21875 C 11.117188 -20.21875 10.242188 -19.953125 9.609375 -19.421875 C 8.984375 -18.890625 8.671875 -18.160156 8.671875 -17.234375 L 2.09375 -17.234375 C 2.09375 -18.660156 2.53125 -19.984375 3.40625 -21.203125 C 4.289062 -22.421875 5.535156 -23.375 7.140625 -24.0625 C 8.753906 -24.75 10.566406 -25.09375 12.578125 -25.09375 C 15.609375 -25.09375 18.015625 -24.328125 19.796875 -22.796875 C 21.585938 -21.273438 22.484375 -19.132812 22.484375 -16.375 L 22.484375 -5.6875 C 22.492188 -3.351562 22.816406 -1.585938 23.453125 -0.390625 L 23.453125 0 Z M 11.359375 -4.578125 C 12.335938 -4.578125 13.234375 -4.789062 14.046875 -5.21875 C 14.867188 -5.65625 15.476562 -6.238281 15.875 -6.96875 L 15.875 -11.203125 L 13.40625 -11.203125 C 10.113281 -11.203125 8.363281 -10.0625 8.15625 -7.78125 L 8.125 -7.40625 C 8.125 -6.582031 8.410156 -5.90625 8.984375 -5.375 C 9.566406 -4.84375 10.359375 -4.578125 11.359375 -4.578125 Z M 11.359375 -4.578125 "/></g></g></g><g fill="#faefe0" fill-opacity="1"><g transform="translate(311.806313, 181.921037)"><g><path d="M 1.578125 -12.5 C 1.578125 -16.28125 2.472656 -19.320312 4.265625 -21.625 C 6.066406 -23.9375 8.492188 -25.09375 11.546875 -25.09375 C 14.242188 -25.09375 16.347656 -24.164062 17.859375 -22.3125 L 18.125 -24.640625 L 24.09375 -24.640625 L 24.09375 -0.8125 C 24.09375 1.332031 23.601562 3.203125 22.625 4.796875 C 21.644531 6.398438 20.265625 7.617188 18.484375 8.453125 C 16.710938 9.285156 14.632812 9.703125 12.25 9.703125 C 10.445312 9.703125 8.6875 9.335938 6.96875 8.609375 C 5.25 7.890625 3.953125 6.960938 3.078125 5.828125 L 5.984375 1.828125 C 7.628906 3.660156 9.617188 4.578125 11.953125 4.578125 C 13.703125 4.578125 15.0625 4.109375 16.03125 3.171875 C 17 2.242188 17.484375 0.921875 17.484375 -0.796875 L 17.484375 -2.125 C 15.972656 -0.40625 13.976562 0.453125 11.5 0.453125 C 8.539062 0.453125 6.144531 -0.703125 4.3125 -3.015625 C 2.488281 -5.328125 1.578125 -8.398438 1.578125 -12.234375 Z M 8.15625 -12.03125 C 8.15625 -9.789062 8.601562 -8.035156 9.5 -6.765625 C 10.394531 -5.503906 11.625 -4.875 13.1875 -4.875 C 15.1875 -4.875 16.617188 -5.625 17.484375 -7.125 L 17.484375 -17.484375 C 16.609375 -18.992188 15.191406 -19.75 13.234375 -19.75 C 11.648438 -19.75 10.40625 -19.101562 9.5 -17.8125 C 8.601562 -16.519531 8.15625 -14.59375 8.15625 -12.03125 Z M 8.15625 -12.03125 "/></g></g></g><g fill="#faefe0" fill-opacity="1"><g transform="translate(334.92817, 181.921037)"><g><path d="M 13.875 0.453125 C 10.257812 0.453125 7.316406 -0.648438 5.046875 -2.859375 C 2.773438 -5.078125 1.640625 -8.035156 1.640625 -11.734375 L 1.640625 -12.359375 C 1.640625 -14.835938 2.117188 -17.050781 3.078125 -19 C 4.035156 -20.957031 5.390625 -22.460938 7.140625 -23.515625 C 8.890625 -24.566406 10.890625 -25.09375 13.140625 -25.09375 C 16.515625 -25.09375 19.164062 -24.03125 21.09375 -21.90625 C 23.03125 -19.78125 24 -16.765625 24 -12.859375 L 24 -10.1875 L 8.3125 -10.1875 C 8.519531 -8.570312 9.160156 -7.273438 10.234375 -6.296875 C 11.304688 -5.328125 12.660156 -4.84375 14.296875 -4.84375 C 16.835938 -4.84375 18.820312 -5.765625 20.25 -7.609375 L 23.484375 -3.984375 C 22.492188 -2.585938 21.15625 -1.5 19.46875 -0.71875 C 17.78125 0.0625 15.914062 0.453125 13.875 0.453125 Z M 13.125 -19.765625 C 11.8125 -19.765625 10.75 -19.320312 9.9375 -18.4375 C 9.125 -17.5625 8.601562 -16.304688 8.375 -14.671875 L 17.53125 -14.671875 L 17.53125 -15.1875 C 17.5 -16.644531 17.101562 -17.769531 16.34375 -18.5625 C 15.59375 -19.363281 14.519531 -19.765625 13.125 -19.765625 Z M 13.125 -19.765625 "/></g></g></g><g fill="#faefe0" fill-opacity="1"><g transform="translate(356.648453, 181.921037)"><g/></g></g><g fill="#faefe0" fill-opacity="1"><g transform="translate(117.218867, 223.763101)"><g><path d="M 20.15625 -8.703125 C 20.15625 -9.992188 19.695312 -10.984375 18.78125 -11.671875 C 17.875 -12.359375 16.234375 -13.085938 13.859375 -13.859375 C 11.492188 -14.628906 9.625 -15.382812 8.25 -16.125 C 4.476562 -18.15625 2.59375 -20.894531 2.59375 -24.34375 C 2.59375 -26.132812 3.097656 -27.734375 4.109375 -29.140625 C 5.117188 -30.546875 6.566406 -31.640625 8.453125 -32.421875 C 10.347656 -33.210938 12.472656 -33.609375 14.828125 -33.609375 C 17.191406 -33.609375 19.300781 -33.179688 21.15625 -32.328125 C 23.007812 -31.472656 24.445312 -30.257812 25.46875 -28.6875 C 26.5 -27.125 27.015625 -25.347656 27.015625 -23.359375 L 20.171875 -23.359375 C 20.171875 -24.878906 19.691406 -26.0625 18.734375 -26.90625 C 17.785156 -27.75 16.445312 -28.171875 14.71875 -28.171875 C 13.039062 -28.171875 11.738281 -27.816406 10.8125 -27.109375 C 9.882812 -26.398438 9.421875 -25.472656 9.421875 -24.328125 C 9.421875 -23.242188 9.960938 -22.335938 11.046875 -21.609375 C 12.140625 -20.878906 13.738281 -20.195312 15.84375 -19.5625 C 19.738281 -18.394531 22.570312 -16.941406 24.34375 -15.203125 C 26.125 -13.472656 27.015625 -11.320312 27.015625 -8.75 C 27.015625 -5.875 25.925781 -3.617188 23.75 -1.984375 C 21.582031 -0.359375 18.660156 0.453125 14.984375 0.453125 C 12.429688 0.453125 10.109375 -0.0078125 8.015625 -0.9375 C 5.921875 -1.875 4.320312 -3.15625 3.21875 -4.78125 C 2.125 -6.40625 1.578125 -8.289062 1.578125 -10.4375 L 8.421875 -10.4375 C 8.421875 -6.769531 10.609375 -4.9375 14.984375 -4.9375 C 16.609375 -4.9375 17.875 -5.265625 18.78125 -5.921875 C 19.695312 -6.585938 20.15625 -7.515625 20.15625 -8.703125 Z M 20.15625 -8.703125 "/></g></g></g><g fill="#faefe0" fill-opacity="1"><g transform="translate(142.390177, 223.763101)"><g><path d="M 1.5 -12.546875 C 1.5 -14.992188 1.96875 -17.171875 2.90625 -19.078125 C 3.851562 -20.992188 5.210938 -22.472656 6.984375 -23.515625 C 8.753906 -24.566406 10.804688 -25.09375 13.140625 -25.09375 C 16.460938 -25.09375 19.175781 -24.078125 21.28125 -22.046875 C 23.382812 -20.015625 24.554688 -17.25 24.796875 -13.75 L 24.84375 -12.0625 C 24.84375 -8.289062 23.785156 -5.257812 21.671875 -2.96875 C 19.566406 -0.6875 16.738281 0.453125 13.1875 0.453125 C 9.632812 0.453125 6.796875 -0.679688 4.671875 -2.953125 C 2.554688 -5.234375 1.5 -8.332031 1.5 -12.25 Z M 8.078125 -12.0625 C 8.078125 -9.726562 8.515625 -7.941406 9.390625 -6.703125 C 10.273438 -5.460938 11.539062 -4.84375 13.1875 -4.84375 C 14.78125 -4.84375 16.023438 -5.453125 16.921875 -6.671875 C 17.816406 -7.898438 18.265625 -9.859375 18.265625 -12.546875 C 18.265625 -14.835938 17.816406 -16.613281 16.921875 -17.875 C 16.023438 -19.132812 14.765625 -19.765625 13.140625 -19.765625 C 11.523438 -19.765625 10.273438 -19.140625 9.390625 -17.890625 C 8.515625 -16.640625 8.078125 -14.695312 8.078125 -12.0625 Z M 8.078125 -12.0625 "/></g></g></g><g fill="#faefe0" fill-opacity="1"><g transform="translate(165.261543, 223.763101)"><g><path d="M 9.46875 0 L 2.875 0 L 2.875 -34.984375 L 9.46875 -34.984375 Z M 9.46875 0 "/></g></g></g><g fill="#faefe0" fill-opacity="1"><g transform="translate(174.128305, 223.763101)"><g><path d="M 17.28125 -2.5 C 15.65625 -0.53125 13.410156 0.453125 10.546875 0.453125 C 7.898438 0.453125 5.878906 -0.300781 4.484375 -1.8125 C 3.097656 -3.332031 2.394531 -5.5625 2.375 -8.5 L 2.375 -24.640625 L 8.953125 -24.640625 L 8.953125 -8.71875 C 8.953125 -6.15625 10.117188 -4.875 12.453125 -4.875 C 14.691406 -4.875 16.226562 -5.648438 17.0625 -7.203125 L 17.0625 -24.640625 L 23.65625 -24.640625 L 23.65625 0 L 17.46875 0 Z M 17.28125 -2.5 "/></g></g></g><g fill="#faefe0" fill-opacity="1"><g transform="translate(196.726414, 223.763101)"><g><path d="M 10.40625 -30.703125 L 10.40625 -24.640625 L 14.625 -24.640625 L 14.625 -19.8125 L 10.40625 -19.8125 L 10.40625 -7.515625 C 10.40625 -6.609375 10.578125 -5.957031 10.921875 -5.5625 C 11.273438 -5.164062 11.945312 -4.96875 12.9375 -4.96875 C 13.664062 -4.96875 14.3125 -5.019531 14.875 -5.125 L 14.875 -0.140625 C 13.582031 0.253906 12.253906 0.453125 10.890625 0.453125 C 6.273438 0.453125 3.921875 -1.875 3.828125 -6.53125 L 3.828125 -19.8125 L 0.234375 -19.8125 L 0.234375 -24.640625 L 3.828125 -24.640625 L 3.828125 -30.703125 Z M 10.40625 -30.703125 "/></g></g></g><g fill="#faefe0" fill-opacity="1"><g transform="translate(208.986164, 223.763101)"><g><path d="M 9.46875 0 L 2.875 0 L 2.875 -24.640625 L 9.46875 -24.640625 Z M 2.484375 -31.015625 C 2.484375 -32.003906 2.8125 -32.816406 3.46875 -33.453125 C 4.132812 -34.085938 5.035156 -34.40625 6.171875 -34.40625 C 7.296875 -34.40625 8.191406 -34.085938 8.859375 -33.453125 C 9.523438 -32.816406 9.859375 -32.003906 9.859375 -31.015625 C 9.859375 -30.015625 9.519531 -29.195312 8.84375 -28.5625 C 8.164062 -27.925781 7.273438 -27.609375 6.171875 -27.609375 C 5.066406 -27.609375 4.175781 -27.925781 3.5 -28.5625 C 2.820312 -29.195312 2.484375 -30.015625 2.484375 -31.015625 Z M 2.484375 -31.015625 "/></g></g></g><g fill="#faefe0" fill-opacity="1"><g transform="translate(217.85293, 223.763101)"><g><path d="M 1.5 -12.546875 C 1.5 -14.992188 1.96875 -17.171875 2.90625 -19.078125 C 3.851562 -20.992188 5.210938 -22.472656 6.984375 -23.515625 C 8.753906 -24.566406 10.804688 -25.09375 13.140625 -25.09375 C 16.460938 -25.09375 19.175781 -24.078125 21.28125 -22.046875 C 23.382812 -20.015625 24.554688 -17.25 24.796875 -13.75 L 24.84375 -12.0625 C 24.84375 -8.289062 23.785156 -5.257812 21.671875 -2.96875 C 19.566406 -0.6875 16.738281 0.453125 13.1875 0.453125 C 9.632812 0.453125 6.796875 -0.679688 4.671875 -2.953125 C 2.554688 -5.234375 1.5 -8.332031 1.5 -12.25 Z M 8.078125 -12.0625 C 8.078125 -9.726562 8.515625 -7.941406 9.390625 -6.703125 C 10.273438 -5.460938 11.539062 -4.84375 13.1875 -4.84375 C 14.78125 -4.84375 16.023438 -5.453125 16.921875 -6.671875 C 17.816406 -7.898438 18.265625 -9.859375 18.265625 -12.546875 C 18.265625 -14.835938 17.816406 -16.613281 16.921875 -17.875 C 16.023438 -19.132812 14.765625 -19.765625 13.140625 -19.765625 C 11.523438 -19.765625 10.273438 -19.140625 9.390625 -17.890625 C 8.515625 -16.640625 8.078125 -14.695312 8.078125 -12.0625 Z M 8.078125 -12.0625 "/></g></g></g><g fill="#faefe0" fill-opacity="1"><g transform="translate(240.724292, 223.763101)"><g><path d="M 8.578125 -24.640625 L 8.796875 -21.796875 C 10.554688 -23.992188 12.914062 -25.09375 15.875 -25.09375 C 18.488281 -25.09375 20.429688 -24.328125 21.703125 -22.796875 C 22.972656 -21.265625 23.625 -18.972656 23.65625 -15.921875 L 23.65625 0 L 17.078125 0 L 17.078125 -15.765625 C 17.078125 -17.160156 16.773438 -18.171875 16.171875 -18.796875 C 15.566406 -19.429688 14.554688 -19.75 13.140625 -19.75 C 11.285156 -19.75 9.894531 -18.957031 8.96875 -17.375 L 8.96875 0 L 2.390625 0 L 2.390625 -24.640625 Z M 8.578125 -24.640625 "/></g></g></g><g fill="#faefe0" fill-opacity="1"><g transform="translate(263.345172, 223.763101)"><g><path d="M 15.875 -6.8125 C 15.875 -7.613281 15.472656 -8.242188 14.671875 -8.703125 C 13.878906 -9.171875 12.601562 -9.585938 10.84375 -9.953125 C 4.976562 -11.179688 2.046875 -13.671875 2.046875 -17.421875 C 2.046875 -19.609375 2.953125 -21.429688 4.765625 -22.890625 C 6.585938 -24.359375 8.960938 -25.09375 11.890625 -25.09375 C 15.015625 -25.09375 17.515625 -24.351562 19.390625 -22.875 C 21.265625 -21.40625 22.203125 -19.5 22.203125 -17.15625 L 15.625 -17.15625 C 15.625 -18.09375 15.316406 -18.867188 14.703125 -19.484375 C 14.097656 -20.097656 13.148438 -20.40625 11.859375 -20.40625 C 10.753906 -20.40625 9.894531 -20.15625 9.28125 -19.65625 C 8.675781 -19.15625 8.375 -18.515625 8.375 -17.734375 C 8.375 -17.003906 8.71875 -16.414062 9.40625 -15.96875 C 10.101562 -15.519531 11.269531 -15.132812 12.90625 -14.8125 C 14.550781 -14.488281 15.9375 -14.117188 17.0625 -13.703125 C 20.53125 -12.429688 22.265625 -10.222656 22.265625 -7.078125 C 22.265625 -4.835938 21.300781 -3.019531 19.375 -1.625 C 17.445312 -0.238281 14.957031 0.453125 11.90625 0.453125 C 9.84375 0.453125 8.007812 0.0859375 6.40625 -0.640625 C 4.8125 -1.378906 3.554688 -2.390625 2.640625 -3.671875 C 1.734375 -4.960938 1.28125 -6.347656 1.28125 -7.828125 L 7.515625 -7.828125 C 7.578125 -6.660156 8.007812 -5.765625 8.8125 -5.140625 C 9.613281 -4.523438 10.691406 -4.21875 12.046875 -4.21875 C 13.304688 -4.21875 14.257812 -4.453125 14.90625 -4.921875 C 15.550781 -5.398438 15.875 -6.03125 15.875 -6.8125 Z M 15.875 -6.8125 "/></g></g></g></svg>