<?xml version="1.0" encoding="UTF-8"?>
<svg id="Layer_2" data-name="Layer 2" xmlns="http://www.w3.org/2000/svg" xmlns:xlink="http://www.w3.org/1999/xlink" viewBox="0 0 453.01 109.42">
  <defs>
    <style>
      .cls-1 {
        fill: none;
      }

      .cls-2 {
        clip-path: url(#clippath);
      }

      .cls-3 {
        fill: #314668;
      }

      .cls-4 {
        clip-path: url(#clippath-1);
      }

      .cls-5 {
        clip-path: url(#clippath-4);
      }

      .cls-6 {
        clip-path: url(#clippath-3);
      }

      .cls-7 {
        clip-path: url(#clippath-2);
      }

      .cls-8 {
        clip-path: url(#clippath-5);
      }
    </style>
    <clipPath id="clippath">
      <rect class="cls-1" width="56.3" height="3.26"/>
    </clipPath>
    <clipPath id="clippath-1">
      <rect class="cls-1" x="26.96" width="29.33" height="56.59"/>
    </clipPath>
    <clipPath id="clippath-2">
      <rect class="cls-1" x="54.96" width="56" height="3.26"/>
    </clipPath>
    <clipPath id="clippath-3">
      <rect class="cls-1" x="82.96" width="28" height="56.59"/>
    </clipPath>
    <clipPath id="clippath-4">
      <rect class="cls-1" x="82.84" y="53.68" width="28" height="55.74"/>
    </clipPath>
    <clipPath id="clippath-5">
      <rect class="cls-1" y="52.59" width="56.3" height="4"/>
    </clipPath>
  </defs>
  <g id="Layer_1-2" data-name="Layer 1">
    <path class="cls-3" d="m55.36,18.6v2.39l-20.97-.02h-13.42s-2.39-2.4-2.39-2.4h18.18s18.59.03,18.59.03Z"/>
    <path class="cls-3" d="m55.36,24.81v2.39l-27.18-.02h-.99l-2.39-2.39h5.77s24.8.02,24.8.02Z"/>
    <path class="cls-3" d="m55.36,12.39v2.39h-14.77s-25.83-.03-25.83-.03l-2.39-2.39,30.61.02h12.39Z"/>
    <path class="cls-3" d="m55.36,6.19v2.39h-8.57s-38.25-.04-38.25-.04l-2.39-2.39,43.02.03h6.18Z"/>
    <g class="cls-2">
      <path class="cls-3" d="m55.36,0v2.36h-2.36s-50.67-.03-50.67-.03L0,0h55.36Z"/>
    </g>
    <g class="cls-4">
      <path class="cls-3" d="m55.36,0v55.36l-27.68-27.68,15.29-15.29,3.82-3.82,6.21-6.21,2.36-2.35Z"/>
    </g>
    <path class="cls-3" d="m110.72,18.6v2.39l-20.97-.02h-13.42s-2.39-2.4-2.39-2.4h18.18s18.59.03,18.59.03Z"/>
    <path class="cls-3" d="m110.72,24.81v2.39l-27.18-.02h-.99l-2.39-2.39h5.77s24.8.02,24.8.02Z"/>
    <path class="cls-3" d="m110.72,12.39v2.39h-14.77s-25.83-.03-25.83-.03l-2.39-2.39,30.61.02h12.39Z"/>
    <path class="cls-3" d="m110.72,6.19v2.39h-8.57s-38.25-.04-38.25-.04l-2.39-2.39,43.02.03h6.18Z"/>
    <g class="cls-7">
      <path class="cls-3" d="m110.72,0v2.36h-2.36s-50.67-.03-50.67-.03l-2.33-2.33h55.36Z"/>
    </g>
    <g class="cls-6">
      <path class="cls-3" d="m110.72,0v55.36l-27.68-27.68,15.29-15.29,3.82-3.82,6.21-6.21,2.36-2.35Z"/>
    </g>
    <path class="cls-3" d="m110.6,72.39v2.39l-20.97-.02h-13.42s-2.39-2.4-2.39-2.4h18.18s18.59.03,18.59.03Z"/>
    <path class="cls-3" d="m110.6,78.59v2.39l-27.18-.02h-.99l-2.39-2.39h5.77s24.8.02,24.8.02Z"/>
    <path class="cls-3" d="m110.6,66.17v2.39h-14.77s-25.83-.03-25.83-.03l-2.39-2.39,30.61.02h12.39Z"/>
    <path class="cls-3" d="m110.6,59.97v2.39h-8.57s-38.25-.04-38.25-.04l-2.39-2.39,43.02.03h6.18Z"/>
    <path class="cls-3" d="m110.6,53.78v2.36h-2.36s-50.67-.03-50.67-.03l-2.33-2.33h55.36Z"/>
    <g class="cls-5">
      <path class="cls-3" d="m110.6,53.78v55.36l-27.68-27.68,15.29-15.29,3.82-3.82,6.21-6.21,2.36-2.35Z"/>
    </g>
    <path class="cls-3" d="m55.36,72.28v2.39l-20.97-.02h-13.42s-2.39-2.4-2.39-2.4h18.18s18.59.03,18.59.03Z"/>
    <path class="cls-3" d="m55.36,78.49v2.39l-27.18-.02h-.99l-2.39-2.39h5.77s24.8.02,24.8.02Z"/>
    <path class="cls-3" d="m55.36,66.07v2.39h-14.77s-25.83-.03-25.83-.03l-2.39-2.39,30.61.02h12.39Z"/>
    <path class="cls-3" d="m55.36,59.86v2.38h-8.57s-38.25-.03-38.25-.03l-2.39-2.39,43.02.03h6.18Z"/>
    <g class="cls-8">
      <path class="cls-3" d="m55.36,53.68v2.36h-2.36s-50.67-.04-50.67-.04l-2.33-2.32h55.36Z"/>
    </g>
    <path class="cls-3" d="m55.36,53.68v55.36l-27.68-27.68,15.29-15.29,3.82-3.82,6.21-6.21,2.36-2.35Z"/>
    <path class="cls-3" d="m134.53,49.92V5.69h13.6c3.89,0,7.36.88,10.42,2.63,3.07,1.75,5.46,4.24,7.19,7.48,1.72,3.22,2.58,6.89,2.58,11v2.04c0,4.11-.85,7.77-2.54,10.98-1.68,3.2-4.06,5.68-7.15,7.44-3.07,1.77-6.54,2.66-10.42,2.67h-13.69Zm9.1-36.85v29.54h4.4c3.57,0,6.29-1.17,8.17-3.5,1.89-2.33,2.85-5.67,2.9-10v-2.33c0-4.5-.93-7.91-2.79-10.23-1.86-2.32-4.58-3.48-8.17-3.48h-4.5Z"/>
    <path class="cls-3" d="m184.84,50.52c-4.82,0-8.74-1.48-11.77-4.44-3.03-2.96-4.54-6.9-4.54-11.81v-.85c0-3.29.64-6.23,1.92-8.83,1.28-2.61,3.08-4.61,5.42-6.02,2.33-1.42,5-2.13,8-2.13,4.5,0,8.04,1.43,10.63,4.27,2.58,2.83,3.88,6.85,3.88,12.04v3.58h-20.94c.29,2.16,1.15,3.88,2.56,5.17,1.43,1.29,3.24,1.94,5.44,1.94,3.38,0,6.01-1.22,7.92-3.67l4.31,4.83c-1.32,1.86-3.1,3.31-5.35,4.35-2.24,1.04-4.72,1.56-7.46,1.56Zm-1-26.98c-1.75,0-3.17.59-4.25,1.77-1.08,1.18-1.77,2.86-2.06,5.04h12.21v-.69c-.04-1.94-.57-3.45-1.58-4.52-1.02-1.07-2.45-1.6-4.31-1.6Z"/>
    <path class="cls-3" d="m207.94,49.92h-8.81V3.25h8.81v46.67Z"/>
    <path class="cls-3" d="m221,8.98v8.06h5.63v6.46h-5.63v16.4c0,1.21.23,2.08.69,2.6.47.53,1.36.79,2.69.79.97,0,1.83-.07,2.58-.21v6.65c-1.72.53-3.49.79-5.31.79-6.16,0-9.29-3.1-9.42-9.31v-17.71h-4.79v-6.46h4.79v-8.06h8.77Z"/>
    <path class="cls-3" d="m245.9,49.92c-.41-.79-.7-1.77-.88-2.94-2.13,2.36-4.89,3.54-8.29,3.54-3.22,0-5.9-.93-8.02-2.79-2.11-1.86-3.17-4.21-3.17-7.04,0-3.48,1.29-6.16,3.88-8.02,2.58-1.86,6.31-2.8,11.19-2.83h4.04v-1.88c0-1.51-.39-2.73-1.17-3.65-.78-.92-2.01-1.38-3.69-1.38-1.47,0-2.64.35-3.48,1.06-.83.71-1.25,1.68-1.25,2.92h-8.79c0-1.9.58-3.66,1.75-5.27,1.18-1.63,2.84-2.9,4.98-3.81,2.15-.93,4.57-1.4,7.25-1.4,4.04,0,7.25,1.02,9.63,3.06,2.39,2.03,3.58,4.89,3.58,8.58v14.23c.03,3.13.46,5.49,1.31,7.08v.52h-8.88Zm-7.25-6.1c1.29,0,2.48-.28,3.56-.85,1.09-.58,1.91-1.36,2.44-2.33v-5.65h-3.27c-4.41,0-6.74,1.52-7.02,4.54l-.02.52c0,1.1.38,2,1.15,2.71.76.71,1.82,1.06,3.17,1.06Z"/>
    <path class="cls-3" d="m289.87,38.31c0-1.72-.61-3.04-1.83-3.96-1.21-.93-3.4-1.9-6.56-2.92-3.16-1.03-5.65-2.03-7.48-3.02-5.03-2.72-7.54-6.38-7.54-10.98,0-2.39.67-4.51,2.02-6.38,1.34-1.88,3.28-3.34,5.79-4.4,2.53-1.05,5.36-1.58,8.5-1.58s5.98.58,8.44,1.73c2.47,1.14,4.39,2.75,5.75,4.83,1.38,2.08,2.06,4.45,2.06,7.1h-9.1c0-2.03-.64-3.6-1.92-4.73-1.28-1.13-3.07-1.69-5.38-1.69s-3.97.47-5.21,1.42c-1.22.95-1.83,2.19-1.83,3.73,0,1.43.72,2.64,2.17,3.6,1.44.97,3.57,1.89,6.4,2.75,5.18,1.56,8.95,3.49,11.31,5.79,2.38,2.31,3.56,5.18,3.56,8.63,0,3.83-1.45,6.84-4.35,9.02-2.89,2.17-6.79,3.25-11.69,3.25-3.41,0-6.5-.61-9.29-1.85-2.79-1.25-4.93-2.96-6.4-5.13-1.46-2.17-2.19-4.68-2.19-7.54h9.13c0,4.89,2.92,7.33,8.75,7.33,2.17,0,3.85-.44,5.06-1.31,1.22-.89,1.83-2.13,1.83-3.71Z"/>
    <path class="cls-3" d="m310.44,8.98v8.06h5.63v6.46h-5.63v16.4c0,1.21.23,2.08.69,2.6.47.53,1.36.79,2.69.79.97,0,1.83-.07,2.58-.21v6.65c-1.72.53-3.49.79-5.31.79-6.16,0-9.29-3.1-9.42-9.31v-17.71h-4.79v-6.46h4.79v-8.06h8.77Z"/>
    <path class="cls-3" d="m314.92,33.19c0-3.26.63-6.17,1.88-8.73,1.26-2.55,3.07-4.53,5.44-5.92,2.36-1.4,5.09-2.1,8.21-2.1,4.44,0,8.06,1.36,10.85,4.08,2.8,2.71,4.38,6.39,4.71,11.04l.06,2.25c0,5.04-1.41,9.09-4.23,12.15-2.82,3.04-6.6,4.56-11.33,4.56s-8.52-1.51-11.35-4.54c-2.82-3.04-4.23-7.17-4.23-12.4v-.4Zm8.79.63c0,3.13.58,5.52,1.75,7.17,1.18,1.64,2.86,2.46,5.04,2.46s3.78-.81,4.98-2.44c1.19-1.63,1.79-4.23,1.79-7.81,0-3.07-.6-5.44-1.79-7.13-1.2-1.68-2.88-2.52-5.04-2.52s-3.8.84-4.98,2.52c-1.17,1.67-1.75,4.25-1.75,7.75Z"/>
    <path class="cls-3" d="m365.27,25.29c-1.2-.17-2.24-.25-3.15-.25-3.32,0-5.5,1.13-6.54,3.38v21.5h-8.77V17.04h8.29l.25,3.94c1.75-3.03,4.19-4.54,7.31-4.54.97,0,1.88.14,2.73.4l-.13,8.46Z"/>
    <path class="cls-3" d="m383.88,49.92c-.41-.79-.7-1.77-.88-2.94-2.13,2.36-4.89,3.54-8.29,3.54-3.22,0-5.9-.93-8.02-2.79-2.11-1.86-3.17-4.21-3.17-7.04,0-3.48,1.29-6.16,3.88-8.02,2.58-1.86,6.31-2.8,11.19-2.83h4.04v-1.88c0-1.51-.39-2.73-1.17-3.65-.78-.92-2.01-1.38-3.69-1.38-1.47,0-2.64.35-3.48,1.06-.83.71-1.25,1.68-1.25,2.92h-8.79c0-1.9.58-3.66,1.75-5.27,1.18-1.63,2.84-2.9,4.98-3.81,2.15-.93,4.57-1.4,7.25-1.4,4.04,0,7.25,1.02,9.63,3.06,2.39,2.03,3.58,4.89,3.58,8.58v14.23c.03,3.13.46,5.49,1.31,7.08v.52h-8.88Zm-7.25-6.1c1.29,0,2.48-.28,3.56-.85,1.09-.58,1.91-1.36,2.44-2.33v-5.65h-3.27c-4.41,0-6.74,1.52-7.02,4.54l-.02.52c0,1.1.38,2,1.15,2.71.76.71,1.82,1.06,3.17,1.06Z"/>
    <path class="cls-3" d="m392.25,33.25c0-5.04,1.19-9.1,3.58-12.19,2.4-3.08,5.64-4.63,9.71-4.63,3.61,0,6.42,1.24,8.42,3.71l.38-3.1h7.96v31.79c0,2.88-.66,5.38-1.98,7.5-1.31,2.13-3.15,3.74-5.52,4.85-2.36,1.11-5.14,1.67-8.31,1.67-2.41,0-4.75-.48-7.04-1.44s-4.02-2.2-5.19-3.73l3.88-5.33c2.19,2.44,4.84,3.67,7.96,3.67,2.33,0,4.15-.63,5.44-1.88,1.3-1.24,1.96-3,1.96-5.29v-1.77c-2.03,2.29-4.7,3.44-8,3.44-3.95,0-7.14-1.54-9.58-4.63-2.43-3.09-3.65-7.19-3.65-12.29v-.35Zm8.77.63c0,2.97.59,5.31,1.79,7,1.19,1.7,2.83,2.54,4.92,2.54,2.68,0,4.59-1,5.75-3v-13.83c-1.18-2-3.08-3-5.69-3-2.11,0-3.77.86-4.98,2.58-1.2,1.72-1.79,4.29-1.79,7.71Z"/>
    <path class="cls-3" d="m439.49,50.52c-4.82,0-8.74-1.48-11.77-4.44-3.03-2.96-4.54-6.9-4.54-11.81v-.85c0-3.29.64-6.23,1.92-8.83,1.28-2.61,3.08-4.61,5.42-6.02,2.33-1.42,5-2.13,8-2.13,4.5,0,8.04,1.43,10.63,4.27,2.58,2.83,3.88,6.85,3.88,12.04v3.58h-20.94c.29,2.16,1.15,3.88,2.56,5.17,1.43,1.29,3.24,1.94,5.44,1.94,3.38,0,6.01-1.22,7.92-3.67l4.31,4.83c-1.32,1.86-3.1,3.31-5.35,4.35-2.24,1.04-4.72,1.56-7.46,1.56Zm-1-26.98c-1.75,0-3.17.59-4.25,1.77-1.08,1.18-1.77,2.86-2.06,5.04h12.21v-.69c-.04-1.94-.57-3.45-1.58-4.52-1.02-1.07-2.45-1.6-4.31-1.6Z"/>
    <path class="cls-3" d="m157.45,94.13c0-1.72-.61-3.04-1.83-3.96-1.21-.93-3.4-1.9-6.56-2.92-3.16-1.03-5.65-2.03-7.48-3.02-5.03-2.72-7.54-6.38-7.54-10.98,0-2.39.67-4.51,2.02-6.38,1.34-1.88,3.28-3.34,5.79-4.4,2.53-1.05,5.36-1.58,8.5-1.58s5.98.58,8.44,1.73c2.47,1.14,4.39,2.75,5.75,4.83,1.38,2.08,2.06,4.45,2.06,7.1h-9.1c0-2.03-.64-3.6-1.92-4.73-1.28-1.13-3.07-1.69-5.38-1.69s-3.97.47-5.21,1.42c-1.22.95-1.83,2.19-1.83,3.73,0,1.43.72,2.64,2.17,3.6,1.44.97,3.57,1.89,6.4,2.75,5.18,1.56,8.95,3.49,11.31,5.79,2.38,2.31,3.56,5.18,3.56,8.63,0,3.83-1.45,6.84-4.35,9.02-2.89,2.17-6.79,3.25-11.69,3.25-3.41,0-6.5-.61-9.29-1.85-2.79-1.25-4.93-2.96-6.4-5.13-1.46-2.17-2.19-4.68-2.19-7.54h9.13c0,4.89,2.92,7.33,8.75,7.33,2.17,0,3.85-.44,5.06-1.31,1.22-.89,1.83-2.13,1.83-3.71Z"/>
    <path class="cls-3" d="m166.15,89c0-3.26.63-6.17,1.88-8.73,1.26-2.55,3.07-4.53,5.44-5.92,2.36-1.4,5.09-2.1,8.21-2.1,4.44,0,8.06,1.36,10.85,4.08,2.8,2.71,4.38,6.39,4.71,11.04l.06,2.25c0,5.04-1.41,9.09-4.23,12.15-2.82,3.04-6.6,4.56-11.33,4.56s-8.52-1.51-11.35-4.54c-2.82-3.04-4.23-7.17-4.23-12.4v-.4Zm8.79.63c0,3.13.58,5.52,1.75,7.17,1.18,1.64,2.86,2.46,5.04,2.46s3.78-.81,4.98-2.44c1.19-1.63,1.79-4.23,1.79-7.81,0-3.07-.6-5.44-1.79-7.13-1.2-1.68-2.88-2.52-5.04-2.52s-3.8.84-4.98,2.52c-1.17,1.67-1.75,4.25-1.75,7.75Z"/>
    <path class="cls-3" d="m207.31,105.73h-8.81v-46.67h8.81v46.67Z"/>
    <path class="cls-3" d="m229.55,102.4c-2.17,2.63-5.17,3.94-9,3.94-3.53,0-6.22-1.01-8.06-3.02-1.85-2.03-2.79-5-2.83-8.92v-21.54h8.77v21.25c0,3.42,1.56,5.13,4.69,5.13s5.01-1.03,6.13-3.1v-23.27h8.81v32.88h-8.27l-.23-3.33Z"/>
    <path class="cls-3" d="m250.51,64.8v8.06h5.63v6.46h-5.63v16.4c0,1.21.23,2.08.69,2.6.47.53,1.36.79,2.69.79.97,0,1.83-.07,2.58-.21v6.65c-1.72.53-3.49.79-5.31.79-6.16,0-9.29-3.1-9.42-9.31v-17.71h-4.79v-6.46h4.79v-8.06h8.77Z"/>
    <path class="cls-3" d="m265.63,105.73h-8.81v-32.88h8.81v32.88Zm-9.33-41.38c0-1.32.44-2.4,1.31-3.25.89-.84,2.09-1.27,3.6-1.27s2.69.43,3.58,1.27c.89.85,1.33,1.93,1.33,3.25s-.45,2.43-1.35,3.29c-.89.85-2.08,1.27-3.56,1.27s-2.66-.42-3.56-1.27c-.91-.86-1.35-1.96-1.35-3.29Z"/>
    <path class="cls-3" d="m266.81,89c0-3.26.63-6.17,1.88-8.73,1.26-2.55,3.07-4.53,5.44-5.92,2.36-1.4,5.09-2.1,8.21-2.1,4.44,0,8.06,1.36,10.85,4.08,2.8,2.71,4.38,6.39,4.71,11.04l.06,2.25c0,5.04-1.41,9.09-4.23,12.15-2.82,3.04-6.6,4.56-11.33,4.56s-8.52-1.51-11.35-4.54c-2.82-3.04-4.23-7.17-4.23-12.4v-.4Zm8.79.63c0,3.13.58,5.52,1.75,7.17,1.18,1.64,2.86,2.46,5.04,2.46s3.78-.81,4.98-2.44c1.19-1.63,1.79-4.23,1.79-7.81,0-3.07-.6-5.44-1.79-7.13-1.2-1.68-2.88-2.52-5.04-2.52s-3.8.84-4.98,2.52c-1.17,1.67-1.75,4.25-1.75,7.75Z"/>
    <path class="cls-3" d="m306.78,72.86l.27,3.81c2.34-2.94,5.49-4.42,9.44-4.42,3.48,0,6.07,1.03,7.77,3.08,1.71,2.04,2.58,5.1,2.63,9.17v21.23h-8.77v-21.02c0-1.86-.41-3.21-1.23-4.04-.81-.84-2.16-1.27-4.04-1.27-2.47,0-4.33,1.06-5.56,3.17v23.17h-8.77v-32.88h8.27Z"/>
    <path class="cls-3" d="m346.67,96.65c0-1.07-.54-1.91-1.6-2.52-1.06-.63-2.76-1.18-5.1-1.67-7.82-1.64-11.73-4.96-11.73-9.96,0-2.92,1.21-5.35,3.63-7.31,2.43-1.96,5.59-2.94,9.5-2.94,4.17,0,7.5.99,10,2.96,2.51,1.96,3.77,4.51,3.77,7.65h-8.79c0-1.25-.41-2.28-1.21-3.1-.81-.82-2.07-1.23-3.79-1.23-1.49,0-2.64.33-3.44,1-.81.67-1.21,1.52-1.21,2.54s.46,1.76,1.38,2.35c.92.6,2.46,1.12,4.65,1.56,2.19.43,4.04.92,5.54,1.46,4.64,1.71,6.96,4.66,6.96,8.85,0,2.99-1.29,5.41-3.85,7.27-2.57,1.85-5.89,2.77-9.96,2.77-2.77,0-5.22-.49-7.35-1.46-2.13-.98-3.8-2.33-5.02-4.04-1.21-1.72-1.81-3.57-1.81-5.56h8.31c.08,1.57.66,2.77,1.73,3.6,1.08.82,2.52,1.23,4.31,1.23,1.68,0,2.95-.32,3.81-.96.86-.64,1.29-1.47,1.29-2.5Z"/>
  </g>
</svg>